<svg width="42" height="43" viewBox="0 0 42 43" fill="none" xmlns="http://www.w3.org/2000/svg">
<path d="M36.2579 9.27283C35.8051 9.27283 35.4376 9.64033 35.4376 10.0931C35.4376 10.546 35.8051 10.9135 36.2579 10.9135C36.7107 10.9135 37.0782 10.546 37.0782 10.0931C37.0782 9.64033 36.7107 9.27283 36.2579 9.27283Z" fill="#008463"/>
<path d="M21.0001 28.9603C20.5473 28.9603 20.1798 29.3278 20.1798 29.7806C20.1798 30.2335 20.5473 30.601 21.0001 30.601C21.4529 30.601 21.8204 30.2335 21.8204 29.7806C21.8204 29.3278 21.4529 28.9603 21.0001 28.9603Z" fill="#008463"/>
<path d="M32.4845 20.7572C32.0314 20.7572 31.6642 21.1245 31.6642 21.5775C31.6642 25.6484 28.3523 28.9603 24.2814 28.9603C23.8283 28.9603 23.4611 29.3276 23.4611 29.7806C23.4611 30.2337 23.8283 30.601 24.2814 30.601C29.2569 30.601 33.3048 26.553 33.3048 21.5775C33.3048 21.1245 32.9376 20.7572 32.4845 20.7572Z" fill="#008463"/>
<path d="M41.9133 13.0076L39.8487 8.87911C38.9586 7.09804 37.1688 5.99161 35.1774 5.99161C33.5544 5.99161 32.0034 6.76139 31.021 8.05264L28.7037 10.6602C28.0861 9.78194 27.1802 9.13045 26.1365 8.83276L21.9915 7.64823C18.8183 6.74154 15.7158 4.2975 13.4793 0.942831C13.2788 0.642104 12.9051 0.508065 12.5591 0.612737C12.2132 0.717491 11.9765 1.03643 11.9765 1.39786V5.81852C11.9765 7.87299 12.2842 9.899 12.8921 11.8539C12.255 12.0122 11.6126 12.1447 10.9733 12.248C9.72065 12.4512 8.44449 12.5541 7.18014 12.5541H0.820258C0.522074 12.5541 0.247352 12.716 0.102813 12.9768C-0.0417264 13.2377 -0.0333593 13.5564 0.124715 13.8092L5.03675 21.6687C7.1356 25.0263 10.7502 27.1333 14.71 27.3069L6.8201 36.2382C5.6044 37.4812 6.02703 39.5615 7.63287 40.2301L11.9767 42.3754C11.9959 42.3849 12.0156 42.3937 12.0355 42.4017C13.2918 42.9037 14.7239 42.2942 15.2309 41.0393L18.2621 33.8822H24.2812C31.2178 33.8822 37.0781 28.2474 37.0781 21.5775V16.6557C37.0781 15.2987 38.182 14.1947 39.539 14.1947H41.1796C41.4639 14.1947 41.728 14.0476 41.8775 13.8057C42.0269 13.5638 42.0405 13.2618 41.9133 13.0076ZM13.6171 3.84247C15.8777 6.49052 18.6746 8.40677 21.5407 9.22577L25.6861 10.4104C26.4946 10.6411 27.1759 11.1968 27.5667 11.9398L25.3862 14.3934L21.5557 12.0951C19.8965 11.0997 17.9219 10.7037 15.9624 11.0209C15.3467 11.1207 14.9537 11.246 14.4701 11.4026C13.904 9.59442 13.6171 7.71976 13.6171 5.81852V3.84247ZM39.539 12.5541C37.2774 12.5541 35.4374 14.3941 35.4374 16.6557V21.5775C35.4374 27.358 30.3285 32.2416 24.2812 32.2416H17.7187C15.3815 32.2416 13.2807 33.5401 12.2362 35.6302L12.0631 35.9763C11.8605 36.3816 12.0248 36.8742 12.4301 37.0769C12.8353 37.2795 13.3281 37.1151 13.5306 36.7099C13.6261 36.5828 14.248 34.7347 16.3972 34.0789L13.7175 40.4062C13.7152 40.4113 13.7131 40.4164 13.7111 40.4217C13.5483 40.829 13.0895 41.0402 12.6695 40.8877C8.05197 38.608 8.33022 38.742 8.27476 38.7199C7.72663 38.5008 7.58242 37.7958 7.99988 37.3784C8.02818 37.35 9.74156 35.4085 16.8988 27.3073C19.9079 27.1735 22.7233 25.9362 24.8613 23.7981C25.1816 23.4778 25.1816 22.9584 24.8613 22.638C24.541 22.3175 24.0216 22.3176 23.7011 22.638C20.0497 26.2897 15.7151 25.5966 15.2323 25.6791C11.6294 25.6791 8.33801 23.8548 6.42791 20.7991L5.90341 19.9598L6.49559 20.1909C10.2513 21.6563 14.941 21.1342 18.1737 18.9789C18.5507 18.7275 18.6525 18.2183 18.4012 17.8413C18.1498 17.4643 17.6406 17.3624 17.2636 17.6138C14.4242 19.507 10.3365 19.9284 7.09187 18.6625L4.44776 17.6309L2.30035 14.1947H7.18014C8.53218 14.1947 9.89668 14.0846 11.2355 13.8676C13.9937 13.4217 15.1525 12.8141 16.2248 12.6404C17.7833 12.3882 19.3748 12.6999 20.7118 13.502L27.1404 17.359C27.5287 17.5922 28.0327 17.4663 28.2659 17.0778C28.499 16.6894 28.3731 16.1855 27.9847 15.9523L26.8178 15.2523C32.5811 8.76549 32.2731 9.11733 32.3121 9.0654C32.9851 8.16798 34.0563 7.63223 35.1774 7.63223C36.5431 7.63223 37.7707 8.39102 38.3812 9.61271L39.8522 12.5541H39.539Z" fill="#008463"/>
</svg>
