<svg width="26" height="26" viewBox="0 0 26 26" fill="none" xmlns="http://www.w3.org/2000/svg">
<rect width="26" height="26" rx="1" fill="white"/>
<path d="M13 13.4651C14.1559 13.4651 15.093 12.528 15.093 11.3721C15.093 10.2161 14.1559 9.27905 13 9.27905C11.8441 9.27905 10.907 10.2161 10.907 11.3721C10.907 12.528 11.8441 13.4651 13 13.4651Z" fill="#008463"/>
<path d="M13 14.3024C11.7652 14.3024 10.7841 14.9783 10.9195 15.7697L11.487 22.1363C11.487 22.6647 12.1644 23.0931 13 23.0931C13.8356 23.0931 14.5131 22.6647 14.5131 22.1363L15.0806 15.7697C15.2157 14.9769 14.2332 14.3024 13 14.3024Z" fill="#008463"/>
<path d="M12.9999 3C8.03737 3 4 7.05041 4 12.029C4 15.9975 6.5663 19.3736 10.1204 20.5814L10.0142 19.4394C7.09555 18.2514 5.03101 15.3784 5.03101 12.029C5.03101 7.62069 8.60587 4.03434 12.9999 4.03434C17.3941 4.03434 20.969 7.62074 20.969 12.029C20.969 15.3783 18.9044 18.2514 15.9858 19.4393L15.8795 20.5813C19.4337 19.3736 22 15.9974 22 12.029C22 7.05041 17.9626 3 12.9999 3Z" fill="#008463"/>
<path d="M12.9999 5.93018C9.653 5.93018 6.93018 8.67009 6.93018 12.0379C6.93018 14.2297 8.084 16.1548 9.81197 17.2325L9.6973 15.9966C9.6902 15.9486 9.68749 15.9006 9.68391 15.8527C8.62825 14.9223 7.95967 13.5576 7.95967 12.0379C7.95967 9.24131 10.2206 6.96612 12.9999 6.96612C15.7792 6.96612 18.0402 9.24131 18.0402 12.0379C18.0402 13.5576 17.3716 14.9224 16.3159 15.8527C16.3123 15.9006 16.3096 15.9485 16.3025 15.9963L16.1879 17.2324C17.9158 16.1547 19.0697 14.2297 19.0697 12.0379C19.0697 8.67009 16.3468 5.93018 12.9999 5.93018Z" fill="#008463"/>
</svg>
