<svg width="26" height="26" viewBox="0 0 26 26" fill="none" xmlns="http://www.w3.org/2000/svg">
<rect width="26" height="26" rx="1" fill="white"/>
<path fill-rule="evenodd" clip-rule="evenodd" d="M12.8645 4.74539C12.8843 4.18159 12.4309 3.71353 11.8667 3.71568C8.591 3.72819 6.29221 3.85018 5.05666 5.05674C3.85373 6.28838 3.72892 8.67925 3.71606 11.8667C3.71378 12.4308 4.18189 12.8842 4.74565 12.8644C8.15302 12.7449 9.83804 12.5421 11.2062 11.2061C12.5422 9.83787 12.745 8.15288 12.8645 4.74539ZM5.05642 20.9434C3.85349 19.7117 3.72868 17.3209 3.71582 14.1334C3.71355 13.5693 4.18166 13.1159 4.74541 13.1357C8.15279 13.2552 9.83781 13.458 11.206 14.7941C12.5419 16.1623 12.7448 17.8473 12.8643 21.2545C12.8841 21.8182 12.4307 22.2863 11.8666 22.2842C8.59081 22.272 6.29199 22.1503 5.05642 20.9434ZM14.1334 22.2842C13.5693 22.2863 13.1159 21.8182 13.1357 21.2545C13.2552 17.8473 13.4581 16.1623 14.7941 14.7941C16.1622 13.458 17.8472 13.2552 21.2545 13.1357C21.8183 13.1159 22.2864 13.5693 22.2841 14.1335C22.271 17.3209 22.1461 19.7117 20.9432 20.9434C19.7077 22.1503 17.4092 22.272 14.1334 22.2842ZM14.1335 3.71568C13.5694 3.71353 13.1159 4.18159 13.1357 4.74539C13.2552 8.15288 13.4581 9.83787 14.7941 11.2061C16.1622 12.5421 17.8472 12.7449 21.2545 12.8644C21.8183 12.8842 22.2864 12.4308 22.2841 11.8666C22.271 8.6792 22.1461 6.28837 20.9432 5.05674C19.7077 3.85018 17.4092 3.72819 14.1335 3.71568Z" fill="#008463"/>
<path fill-rule="evenodd" clip-rule="evenodd" d="M14.7941 14.7941C13.4581 16.1623 13.2552 17.8473 13.1357 21.2545C13.1159 21.8182 13.5693 22.2863 14.1334 22.2842C17.4092 22.272 19.7077 22.1503 20.9432 20.9434C22.1461 19.7117 22.271 17.3209 22.2841 14.1335C22.2864 13.5693 21.8183 13.1159 21.2545 13.1357C17.8472 13.2552 16.1622 13.458 14.7941 14.7941ZM4.74541 13.1357C4.18166 13.1159 3.71355 13.5693 3.71582 14.1334C3.72868 17.3209 3.85349 19.7117 5.05642 20.9434C6.29199 22.1503 8.59081 22.272 11.8666 22.2842C12.4307 22.2863 12.8841 21.8182 12.8643 21.2545C12.7448 17.8473 12.5419 16.1623 11.206 14.7941C9.83781 13.458 8.15279 13.2552 4.74541 13.1357ZM12.8645 4.74539C12.8843 4.18159 12.4309 3.71353 11.8667 3.71568C8.591 3.72819 6.29221 3.85018 5.05666 5.05674C3.85373 6.28838 3.72892 8.67925 3.71606 11.8667C3.71378 12.4308 4.18189 12.8842 4.74565 12.8644C8.15302 12.7449 9.83804 12.5421 11.2062 11.2061C12.5422 9.83786 12.745 8.15288 12.8645 4.74539ZM14.7941 11.2061C13.4581 9.83786 13.2552 8.15288 13.1357 4.74539C13.1159 4.18159 13.5694 3.71353 14.1335 3.71568C17.4092 3.72819 19.7077 3.85018 20.9432 5.05674C22.1461 6.28837 22.271 8.6792 22.2841 11.8666C22.2864 12.4308 21.8183 12.8842 21.2545 12.8644C17.8472 12.7449 16.1622 12.5421 14.7941 11.2061Z" fill="url(#paint0_linear)"/>
<path fill-rule="evenodd" clip-rule="evenodd" d="M22.1817 13.1065C22.2388 13.1047 22.2855 13.0579 22.2855 13.0007C22.2855 12.9437 22.239 12.897 22.1821 12.8953C18.1421 12.7722 16.2809 12.6591 14.7939 11.2067C13.342 9.72003 13.2284 7.85892 13.1057 3.81908C13.1039 3.76193 13.0571 3.71521 12.9999 3.71521C12.9427 3.71521 12.8959 3.76191 12.8941 3.81905C12.7713 7.85891 12.6578 9.72003 11.2058 11.2067C9.71884 12.6591 7.8576 12.7722 3.81772 12.8953C3.76077 12.897 3.71423 12.9437 3.71423 13.0007C3.71423 13.0579 3.76093 13.1047 3.81807 13.1065C7.8577 13.2295 9.71888 13.3427 11.2058 14.7947C12.6578 16.2817 12.7713 18.1428 12.8941 22.1827C12.8959 22.2398 12.9427 22.2865 12.9999 22.2865C13.0571 22.2865 13.1039 22.2398 13.1057 22.1826C13.2284 18.1428 13.342 16.2817 14.7939 14.7947C16.2809 13.3427 18.142 13.2295 22.1817 13.1065Z" fill="white"/>
<defs>
<linearGradient id="paint0_linear" x1="22.2857" y1="22.2855" x2="22.2857" y2="3.71423" gradientUnits="userSpaceOnUse">
<stop stop-color="white" stop-opacity="0.01"/>
<stop offset="0.47509" stop-color="white" stop-opacity="0.01"/>
<stop offset="0.76042" stop-color="white" stop-opacity="0.04271"/>
<stop offset="0.99531" stop-color="white" stop-opacity="0.09855"/>
<stop offset="1" stop-color="white" stop-opacity="0.1"/>
</linearGradient>
</defs>
</svg>
