<svg width="26" height="26" viewBox="0 0 26 26" fill="none" xmlns="http://www.w3.org/2000/svg">
<rect width="26" height="26" rx="1" fill="white"/>
<path d="M21.5467 12.9572C21.3328 12.0277 20.5725 11.3421 19.6574 11.2401C17.491 10.9981 15.2972 10.9969 13.1141 10.9981C10.9301 10.9969 8.73673 10.9981 6.56962 11.2401C5.65502 11.3423 4.89521 12.028 4.68151 12.9572C4.37694 14.2807 4.37329 15.7254 4.37329 17.0882C4.37329 18.451 4.37329 19.8955 4.67786 21.219C4.89155 22.1482 5.65137 22.8338 6.56643 22.9361C8.73308 23.1783 10.9264 23.1793 13.1102 23.1783C15.2942 23.1795 17.4871 23.1783 19.6545 22.9361C20.5691 22.8338 21.3294 22.1482 21.543 21.219C21.8474 19.8955 21.849 18.451 21.849 17.0882C21.8488 15.7252 21.851 14.2807 21.5467 12.9572ZM9.35796 13.983H8.09313V20.7039H6.91825V13.983H5.67648V12.8821H9.35796V13.983ZM12.549 20.7042H11.4922V20.0683C11.0723 20.5496 10.6737 20.7843 10.2854 20.7843C9.94495 20.7843 9.7107 20.6464 9.60499 20.3512C9.54746 20.1749 9.51184 19.8959 9.51184 19.4845V14.8759H10.5678V19.167C10.5678 19.4144 10.5678 19.543 10.5774 19.5777C10.6027 19.7416 10.6828 19.8247 10.8244 19.8247C11.0363 19.8247 11.2577 19.6615 11.492 19.3302V14.8759H12.5488L12.549 20.7042ZM16.5611 18.9549C16.5611 19.4939 16.5248 19.8822 16.4543 20.1293C16.3132 20.5628 16.0308 20.7843 15.6107 20.7843C15.2349 20.7843 14.8723 20.5756 14.5191 20.1395V20.7044H13.4632V12.8821H14.5191V15.4366C14.8602 15.0168 15.2223 14.8044 15.6107 14.8044C16.0308 14.8044 16.3134 15.0257 16.4543 15.462C16.5253 15.6964 16.5611 16.0818 16.5611 16.6336V18.9549ZM20.5467 17.9825H18.4346V19.0156C18.4346 19.5551 18.6111 19.8245 18.9741 19.8245C19.2342 19.8245 19.3855 19.6832 19.4458 19.401C19.4556 19.3437 19.4695 19.109 19.4695 18.6854H20.5469V18.8396C20.5469 19.18 20.5339 19.4144 20.5243 19.5199C20.4889 19.7537 20.4058 19.9658 20.2778 20.1526C19.9853 20.5758 19.552 20.7845 19.0004 20.7845C18.4479 20.7845 18.0273 20.5857 17.7221 20.1877C17.4981 19.8959 17.383 19.4366 17.383 18.8172V16.7759C17.383 16.1528 17.4851 15.6971 17.7095 15.4026C18.0145 15.0037 18.4348 14.8051 18.9743 14.8051C19.5042 14.8051 19.9243 15.0037 20.2202 15.4026C20.4415 15.6971 20.5472 16.1528 20.5472 16.7759V17.9825H20.5467Z" fill="#008463"/>
<path d="M18.9648 15.7554C18.6119 15.7554 18.4349 16.025 18.4349 16.5638V17.1031H19.4909V16.5638C19.4906 16.025 19.3142 15.7554 18.9648 15.7554Z" fill="#008463"/>
<path d="M15.0458 15.7554C14.8718 15.7554 14.6955 15.8376 14.519 16.0122V19.5645C14.6953 19.7412 14.8718 19.8248 15.0458 19.8248C15.3503 19.8248 15.5051 19.5645 15.5051 19.0382V16.5506C15.5051 16.025 15.3503 15.7554 15.0458 15.7554Z" fill="#008463"/>
<path d="M15.6356 10.4607C16.0248 10.4607 16.4299 10.2242 16.8548 9.73743V10.3799H17.9221V4.48975H16.8548V8.99154C16.6182 9.32579 16.394 9.49109 16.1806 9.49109C16.0376 9.49109 15.9536 9.40661 15.9303 9.24109C15.9173 9.20616 15.9173 9.07625 15.9173 8.82625V4.48975H14.8534V9.14725C14.8534 9.56323 14.889 9.84474 14.9479 10.023C15.0552 10.3214 15.292 10.4607 15.6356 10.4607Z" fill="#008463"/>
<path d="M8.2053 7.17891V10.38H9.38885V7.17891L10.8126 2.4762H9.61579L8.80826 5.58006L7.96808 2.4762H6.72266C6.9722 3.20884 7.23179 3.94514 7.48133 4.67847C7.86101 5.78074 8.09799 6.61179 8.2053 7.17891Z" fill="#008463"/>
<path d="M12.3988 10.4609C12.9335 10.4609 13.3491 10.2598 13.6438 9.85794C13.8678 9.56319 13.9751 9.09881 13.9751 8.47278V6.41024C13.9751 5.78056 13.868 5.32029 13.6438 5.02281C13.3491 4.61984 12.9338 4.4187 12.3988 4.4187C11.8669 4.4187 11.4516 4.61984 11.1562 5.02281C10.9294 5.32029 10.8221 5.78056 10.8221 6.41024V8.47278C10.8221 9.09881 10.9294 9.56319 11.1562 9.85794C11.4514 10.2598 11.8669 10.4609 12.3988 10.4609ZM11.8895 6.19632C11.8895 5.65134 12.0548 5.37965 12.3988 5.37965C12.7429 5.37965 12.9077 5.65111 12.9077 6.19632V8.67393C12.9077 9.2189 12.7429 9.4915 12.3988 9.4915C12.0548 9.4915 11.8895 9.2189 11.8895 8.67393V6.19632Z" fill="#008463"/>
</svg>
