<svg width="35" height="43" viewBox="0 0 35 43" fill="none" xmlns="http://www.w3.org/2000/svg">
<path d="M29.3893 11.2975L29.3633 11.2138C28.8981 9.72298 28.372 8.03513 28.7641 6.59768C28.7834 6.55488 28.8124 6.49501 28.8453 6.42742C29.4029 6.91633 30.1292 7.16931 30.87 7.13262C31.9021 7.01771 32.7994 6.3727 33.2375 5.43157C33.7472 4.51201 33.7523 3.39643 33.2517 2.47236C32.6857 1.41665 31.6336 0.70919 30.4421 0.583664C28.9975 0.511566 27.5971 1.09092 26.6255 2.1624C26.3038 2.49167 26.0086 2.84604 25.743 3.22166C25.0299 4.26192 24.5879 5.46376 24.4578 6.71806H10.5419C10.4108 5.46183 9.96815 4.25806 9.25344 3.21651C8.98687 2.84089 8.69101 2.48684 8.36874 2.15758C7.39808 1.08995 6.00085 0.512532 4.55952 0.583342C3.36704 0.708547 2.31429 1.416 1.74799 2.47268C1.24737 3.39643 1.25252 4.51136 1.76183 5.43028C2.19968 6.37238 3.09757 7.01739 4.13004 7.13262C4.87244 7.16996 5.60003 6.91601 6.15764 6.42452C6.18983 6.48793 6.2143 6.53717 6.22493 6.56003C6.63766 8.00262 6.10581 9.70849 5.63674 11.2138L5.61066 11.2988C4.95325 13.2516 4.1661 15.158 3.25372 17.0055C1.56062 20.6361 -0.189459 24.3903 0.016584 28.6337C0.223271 32.8601 2.83036 36.3948 7.75544 39.1522C7.69105 39.3502 7.65693 39.5568 7.65371 39.7647V40.468C7.65499 41.6325 8.59893 42.5762 9.76372 42.5775H25.236C26.4007 42.5762 27.3447 41.6325 27.346 40.468V39.7647C27.3431 39.5568 27.3089 39.3505 27.2446 39.1526C32.1696 36.3948 34.7771 32.8598 34.9834 28.6334C35.1895 24.3903 33.4394 20.6361 31.7463 17.0055C30.8339 15.1576 30.0464 13.2506 29.3893 11.2975ZM24.4955 9.5305H10.5045C10.5692 9.06444 10.6075 8.59485 10.6201 8.12428H24.3796C24.3925 8.59485 24.4311 9.06444 24.4955 9.5305ZM9.19774 14.259C9.61595 13.1753 9.96332 12.0655 10.2379 10.937H11.1703V33.1134C10.5921 32.8827 10.0313 32.6104 9.49232 32.2988C7.34464 31.0764 5.94902 28.5678 5.76004 25.587C5.57267 22.677 6.79573 19.8877 7.97855 17.1896C8.39933 16.2301 8.83363 15.2381 9.19774 14.259ZM12.5769 10.937H13.9834V33.8917C13.5095 33.8138 13.0401 33.7111 12.5769 33.5843V10.937ZM15.39 10.937H16.7966V34.1321C16.2943 34.1212 15.8269 34.099 15.39 34.0642V10.937ZM18.2031 10.937H19.6097V34.0639C19.1725 34.099 18.705 34.1212 18.2031 34.1321V10.937ZM21.0163 10.937H22.4228V33.5705C21.9595 33.697 21.4902 33.7993 21.0163 33.8772V10.937ZM23.8294 10.937H24.7614C25.0357 12.0642 25.3828 13.1724 25.8006 14.2545C26.1664 15.2381 26.6007 16.2301 27.0211 17.1896C28.2039 19.8877 29.427 22.677 29.2396 25.5873C29.0507 28.5674 27.655 31.076 25.5025 32.3007C24.9652 32.6117 24.406 32.883 23.8294 33.1128V10.937ZM25.9394 40.468C25.9391 40.8562 25.6242 41.1706 25.236 41.171H9.76372C9.37546 41.1706 9.0606 40.8562 9.06027 40.468V39.7647C9.0606 39.3766 9.37546 39.0621 9.76372 39.0618H25.236C25.6242 39.0621 25.9391 39.3766 25.9394 39.7647V40.468ZM33.5781 28.5652C33.395 32.3162 30.9778 35.4907 26.4049 38.0109C26.0592 37.7789 25.6522 37.6553 25.236 37.6556H9.76372C9.34745 37.6553 8.94051 37.7789 8.59474 38.0109C4.02219 35.4907 1.60473 32.3162 1.42154 28.5655C1.2316 24.669 2.83294 21.2351 4.52797 17.5993C5.46804 15.6948 6.27869 13.7292 6.9538 11.7156L6.97924 11.6323C7.48147 10.0226 8.10571 8.01968 7.57805 6.17701C7.57419 6.16317 7.07196 4.73281 6.39877 4.60985C6.1277 4.56672 5.85437 4.6739 5.68438 4.88955C5.37081 5.39456 4.82609 5.70998 4.23178 5.72994C3.68029 5.63853 3.21412 5.27128 2.99584 4.75662C2.71414 4.25033 2.71285 3.63525 2.9923 3.12799C3.3371 2.48652 3.97744 2.05748 4.70182 1.98248C5.71593 1.97283 6.68627 2.3964 7.36879 3.14634C7.63632 3.42025 7.88229 3.71507 8.10443 4.02728C8.80014 5.03632 9.18422 6.22754 9.20837 7.45287C9.23831 8.33832 9.16491 9.22409 8.99041 10.0925C8.71869 11.3442 8.34781 12.5721 7.88068 13.7649C7.52944 14.7106 7.12154 15.6408 6.69013 16.625C5.43971 19.4771 4.14711 22.426 4.35637 25.6768C4.57561 29.131 6.23555 32.0635 8.79242 33.5183C9.69708 34.0465 10.659 34.4704 11.6593 34.7817C12.6193 35.0826 13.6061 35.2902 14.6061 35.4012C15.5671 35.5046 16.5332 35.5528 17.5 35.5461C18.4671 35.5528 19.4339 35.5042 20.3956 35.4006C21.3926 35.2902 22.3765 35.0836 23.3336 34.7836C24.3348 34.473 25.2971 34.0491 26.2024 33.5206C28.7641 32.0635 30.4244 29.131 30.6433 25.6774C30.8529 22.426 29.5603 19.4771 28.3095 16.625C27.8781 15.6408 27.4702 14.7106 27.118 13.7604C26.6528 12.5728 26.2826 11.3503 26.0115 10.1041C25.8354 9.23117 25.7617 8.3409 25.791 7.45094C25.8151 6.22851 26.1979 5.03986 26.892 4.03275C27.1132 3.72055 27.3585 3.42572 27.6254 3.15149C28.3079 2.3964 29.2821 1.9709 30.2998 1.9828C31.0235 2.05812 31.6632 2.48684 32.0074 3.12799C32.2868 3.63557 32.2852 4.2513 32.0032 4.75759C31.7852 5.27161 31.3191 5.63885 30.7676 5.72994C30.1752 5.71288 29.6311 5.39938 29.3192 4.89535C29.1495 4.6768 28.8742 4.56769 28.6009 4.60985C27.9277 4.73281 27.4258 6.16285 27.4223 6.17347C26.894 8.01968 27.5182 10.0226 28.0204 11.6323L28.0459 11.7143C28.721 13.7282 29.5313 15.6945 30.4717 17.5993C32.1667 21.2351 33.7678 24.6687 33.5781 28.5652Z" fill="#008463"/>
</svg>
