<svg width="60" height="60" viewBox="0 0 60 60" fill="none" xmlns="http://www.w3.org/2000/svg">
<path d="M33.3478 12.1853C34.2382 10.3427 35.3463 8.04953 34.2126 5.40392C32.9928 2.55773 30.5758 1.459 29.2435 1.05726C28.8154 0.928193 28.3716 1.09768 28.1392 1.4782C27.906 1.86016 27.9586 2.33366 28.27 2.65645C29.3643 3.79103 29.5748 4.95479 28.8955 6.11518C28.6624 6.51338 28.31 6.91165 27.8178 7.3323C27.5535 7.55875 27.5216 7.95765 27.7483 8.22273C27.9749 8.48782 28.3736 8.51891 28.6387 8.29228C29.2393 7.77842 29.68 7.27511 29.9855 6.75323C30.5514 5.7867 30.6933 4.79272 30.4075 3.79909C30.294 3.40478 30.1149 3.01864 29.8719 2.64363C31.0402 3.18662 32.3049 4.15936 33.0515 5.90149C33.9586 8.01809 33.0298 9.94003 32.2105 11.6357C31.6031 12.8927 31.0294 14.0799 31.3155 15.1883C31.5145 15.9597 32.0576 16.4144 32.8057 16.4359C34.3996 16.4815 36.5055 14.5165 37.4865 12.1719C37.9588 13.1704 38.4568 14.7865 38.1917 16.869C37.859 19.4841 35.0575 21.8094 33.6973 22.7957L32.1516 22.7957C32.3419 22.1622 32.5995 21.5431 32.8329 21.187C33.3964 20.3268 33.2651 19.7504 33.0557 19.4185C32.6269 18.739 31.6128 18.5477 29.7677 18.7982C29.4556 18.8405 29.2325 18.7774 29.0442 18.5939C28.3674 17.9342 28.3057 15.9528 28.4258 14.8594C28.4546 14.6003 28.3214 14.3503 28.0903 14.2297C27.8593 14.1091 27.5779 14.1428 27.382 14.3146C27.2889 14.3963 25.0914 16.3419 24.3684 18.7707C24.0154 19.956 24.2122 21.4411 24.4799 22.587C21.4288 20.381 21.1439 17.9219 21.465 16.2129C22.0424 13.1405 24.0318 11.5502 26.1948 10.0619C26.4827 9.86387 26.5548 9.47094 26.3572 9.18364C26.1595 8.89629 25.7663 8.82361 25.4789 9.02129C23.1849 10.5997 20.8895 12.4372 20.2237 15.9796C19.7488 18.5069 20.6374 20.8763 22.7397 22.7959L20.3334 22.7959C19.9631 22.7959 19.6214 22.9811 19.4186 23.2909C19.216 23.6009 19.1839 23.9884 19.3326 24.3276L19.3712 24.4158C19.9783 25.8009 20.9348 26.9897 22.1335 27.8787C22.111 27.8983 22.0883 27.9177 22.067 27.9391C21.825 28.181 21.6918 28.5027 21.6918 28.8449L21.6918 30.1301C21.6918 30.4722 21.825 30.794 22.067 31.0359C22.309 31.2779 22.6307 31.4112 22.9728 31.4112H23.7924L27.6488 56.3792C27.8153 57.4576 28.7283 58.2403 29.8194 58.2402C30.4249 58.2403 30.9753 57.9995 31.3739 57.6008C31.6941 57.2807 31.9163 56.8587 31.9903 56.3781L35.8336 31.4109H36.5693C36.9115 31.4109 37.2332 31.2777 37.4752 31.0357C37.7172 30.7937 37.8504 30.472 37.8504 30.1299L37.8504 28.8446C37.8504 28.5025 37.7171 28.1808 37.4752 27.9388C37.466 27.9296 37.4559 27.9216 37.4463 27.9127C37.8049 27.6507 38.1432 27.3635 38.4558 27.0509C39.2337 26.273 39.8613 25.3469 40.2983 24.3145C40.4415 23.9761 40.4058 23.5912 40.2027 23.2848C39.9997 22.9784 39.6591 22.7956 39.2917 22.7957L35.7404 22.7957C36.0774 22.5069 36.3862 22.2219 36.6658 21.9423C38.7588 19.8493 39.315 18.0476 39.4447 17.0284C39.8163 14.109 38.8693 11.9714 38.2717 10.957C38.0786 10.6292 37.7096 10.4446 37.3318 10.4867C36.9532 10.529 36.6335 10.7908 36.5172 11.154C35.7704 13.486 33.7727 15.1999 32.8419 15.1732C32.7352 15.1702 32.6144 15.1667 32.5384 14.8725C32.3681 14.2126 32.8221 13.2731 33.3478 12.1853ZM25.5788 19.1309C25.8889 18.0896 26.5467 17.1239 27.1277 16.418C27.1829 17.4798 27.4177 18.7712 28.1614 19.4972C28.6283 19.953 29.2425 20.144 29.9377 20.0497C31.4152 19.8491 31.8666 20.0271 31.9701 20.0863C31.961 20.1408 31.924 20.2693 31.7764 20.4947C31.4277 21.0268 31.0679 21.9217 30.84 22.7957H25.8362C25.5773 21.847 25.2469 20.2455 25.5788 19.1309ZM36.5873 28.8447L36.5873 30.13C36.5873 30.1355 36.5751 30.1479 36.5693 30.1478L28.8556 30.1479C28.507 30.1479 28.2242 30.4307 28.2241 30.7794C28.2241 31.1283 28.5068 31.411 28.8557 31.4111L34.5556 31.4111L30.7418 56.1859C30.6712 56.6445 30.2833 56.9773 29.8193 56.9772C29.3557 56.9772 28.9678 56.6446 28.8971 56.1863L25.0705 31.4109L25.9173 31.4109C26.2659 31.4109 26.5487 31.1281 26.5488 30.7794C26.5488 30.4305 26.2661 30.1478 25.9172 30.1478H22.9728C22.97 30.1478 22.9653 30.1478 22.9601 30.1425C22.9549 30.1373 22.9549 30.1326 22.9549 30.1299L22.9549 28.8446C22.9549 28.8391 22.9671 28.8267 22.9729 28.8268L36.5873 28.8447L36.5694 28.8267C36.5722 28.8267 36.5769 28.8267 36.5821 28.8319C36.5872 28.8372 36.5873 28.8419 36.5873 28.8447ZM39.0301 24.0587C38.3198 25.5861 37.1107 26.8205 35.5941 27.5635L24.031 27.5635C22.5176 26.8218 21.3062 25.5855 20.5958 24.0587L39.0301 24.0587Z" fill="#008463"/>
</svg>
