<svg width="120" height="48" viewBox="0 0 120 48" fill="none" xmlns="http://www.w3.org/2000/svg">
<path d="M115.986 3.46988C116.139 3.46988 116.326 3.55493 116.53 3.70801C116.615 3.79305 116.734 3.82707 116.887 3.82707C117.091 3.79305 117.21 3.72502 117.245 3.62296C117.279 3.52091 117.33 3.43586 117.364 3.35082V3.16371L117.176 3.35082C117.091 3.43586 116.989 3.46988 116.87 3.46988C116.785 3.46988 116.734 3.45287 116.683 3.40184C116.649 3.36782 116.581 3.3168 116.496 3.28278C116.411 3.24876 116.343 3.19773 116.292 3.16371C116.224 3.1297 116.122 3.07867 115.969 3.04465C115.765 3.04465 115.629 3.07867 115.544 3.16371C115.425 3.28278 115.356 3.38483 115.356 3.46988C115.322 3.55493 115.322 3.58894 115.356 3.58894L115.425 3.52091C115.663 3.40184 115.833 3.38483 115.986 3.46988ZM74.6704 0H37.1651C40.635 0.323175 43.3735 1.49681 45.4146 3.52091C47.4727 5.56201 48.6464 8.31751 48.9695 11.8384C48.8505 10.0865 49.1566 8.4876 49.888 7.02481C50.6194 5.56201 51.5719 4.33735 52.7286 3.3168C53.8852 2.29624 55.1439 1.51382 56.4876 0.952516C57.8483 0.391212 59.09 0.119065 60.2466 0.119065C62.6449 0.153083 64.8051 0.680369 66.7612 1.70092C68.7172 2.72147 70.197 4.21829 71.1836 6.20836L82.3076 28.4564H68.309V29.7661H83.022C83.4642 30.5996 83.9405 31.6371 84.4848 32.8788C85.0291 34.1205 85.6074 35.3962 86.2537 36.7399C86.8831 38.0836 87.6145 39.3933 88.4139 40.7201C89.2133 42.0298 90.0978 43.2204 91.0673 44.275C92.0368 45.3296 93.1084 46.18 94.2651 46.8434C95.4217 47.5067 96.6974 47.8299 98.0921 47.8299H113.162V47.5918C110.611 47.6768 108.417 47.1495 106.563 46.0099C104.709 44.8703 103.212 43.1694 102.055 40.8901L84.4167 5.85117C83.9745 4.96669 83.3792 4.18427 82.6308 3.45287C81.8653 2.73848 81.0319 2.12615 80.0964 1.59887C79.1609 1.08859 78.1914 0.680369 77.2048 0.408221C76.3373 0.187102 75.4869 0.0340184 74.6704 0ZM17.7746 0H3.92913C6.2764 0.204111 8.35152 0.748406 10.1375 1.63288C11.9575 2.53437 13.4373 4.08221 14.5939 6.25939L32.5386 41.2303C32.9298 42.0298 33.4741 42.8292 34.1545 43.6286C34.8349 44.4281 35.5833 45.1254 36.4337 45.7548C37.2672 46.3671 38.1687 46.8774 39.1552 47.2516C40.1247 47.6258 41.1113 47.8129 42.1148 47.8129H80.3855C78.7186 47.8129 77.1538 47.5237 75.691 46.9454C74.2282 46.3671 72.9525 45.5507 71.8299 44.4961C70.7073 43.4415 69.8398 42.1999 69.1935 40.7541C68.5471 39.3253 68.241 37.7434 68.241 36.0255C68.1219 37.6584 67.7647 39.2062 67.1694 40.652C66.5741 42.1148 65.7576 43.3735 64.7201 44.4451C63.6825 45.5167 62.4748 46.3501 61.0801 46.9284C59.6853 47.5067 58.1375 47.7619 56.4196 47.6768H55.5181C55.2799 47.6768 55.0078 47.6598 54.7186 47.6428C54.4125 47.6258 54.1743 47.5918 53.9702 47.5578C52.3033 47.2856 50.7725 46.5882 49.3948 45.4656C48.017 44.343 46.8774 42.8632 45.9589 40.9752L27.8611 5.85117C27.3848 4.89865 26.7555 4.04819 25.9731 3.3168C25.1906 2.5854 24.3402 1.97307 23.4047 1.49681C22.4692 1.02055 21.4656 0.64635 20.4111 0.391212C19.5266 0.170092 18.6421 0.0340184 17.7746 0ZM118.69 3.8781V3.28278C118.656 3.48689 118.588 3.67399 118.503 3.8781C118.418 4.08221 118.35 4.26931 118.265 4.47342C118.112 4.67753 117.891 4.84763 117.636 5.01772C117.381 5.1708 117.125 5.28987 116.887 5.37491C116.683 5.45996 116.445 5.45996 116.173 5.37491C116.088 5.37491 115.952 5.34089 115.748 5.25585C115.544 5.1708 115.408 5.11977 115.322 5.06875C115.237 4.9837 115.101 4.84763 114.897 4.64352C114.693 4.4394 114.574 4.28632 114.54 4.16726C114.574 4.2523 114.608 4.33735 114.625 4.4394C114.642 4.54146 114.693 4.64352 114.778 4.76258C114.931 5.03473 115.135 5.25585 115.373 5.42594C115.612 5.57902 115.799 5.66407 115.918 5.66407C116.037 5.74911 116.156 5.80014 116.275 5.81715C116.394 5.83416 116.598 5.83416 116.87 5.78313C117.193 5.74911 117.483 5.63005 117.772 5.42594C118.044 5.22183 118.231 5.06875 118.316 4.94968C118.435 4.74557 118.52 4.57548 118.554 4.40539C118.605 4.26931 118.639 4.08221 118.69 3.8781ZM114.2 2.27923C114.081 2.43232 113.979 2.63643 113.894 2.87456C113.809 2.9596 113.775 3.04465 113.775 3.1467C113.775 3.24876 113.775 3.33381 113.775 3.41885V3.60595C113.775 3.63997 113.792 3.67399 113.843 3.67399C113.843 3.40184 113.945 3.11269 114.149 2.84054C114.353 2.56839 114.608 2.33026 114.931 2.12615C115.254 1.92204 115.493 1.80298 115.646 1.76896C115.85 1.73494 115.986 1.70092 116.071 1.70092C116.156 1.70092 116.224 1.70092 116.309 1.70092C116.513 1.70092 116.734 1.73494 116.972 1.78597C117.21 1.854 117.415 1.92204 117.568 1.99008C117.772 2.14316 117.908 2.29624 117.993 2.41531C118.078 2.50035 118.146 2.60241 118.197 2.73848C118.265 2.87456 118.282 2.90858 118.282 2.82353C118.248 2.73848 118.18 2.60241 118.095 2.38129C118.01 2.16017 117.891 1.99008 117.738 1.87101C117.466 1.59887 117.159 1.42877 116.836 1.39476C116.564 1.30971 116.292 1.2927 116.054 1.32672C115.339 1.39476 114.71 1.71793 114.2 2.27923ZM119.047 5.88519C118.401 6.66761 117.398 7.05882 116.003 7.05882C115.442 7.05882 114.863 6.78668 114.268 6.25939C113.673 5.7151 113.332 5.1708 113.247 4.6095V4.7966C113.247 5.00071 113.264 5.11977 113.315 5.15379C113.315 5.23884 113.332 5.34089 113.349 5.45996C113.366 5.57902 113.417 5.68108 113.502 5.76612C113.826 6.44649 114.268 6.92275 114.846 7.1949C115.425 7.46704 116.071 7.5691 116.785 7.50106C117.023 7.41602 117.262 7.382 117.5 7.382C118.095 7.17789 118.537 6.95677 118.843 6.71864C119.15 6.48051 119.337 6.29341 119.405 6.17434C119.796 5.66407 120 4.88164 120 3.84408C120 3.691 119.983 3.5039 119.966 3.28278C119.949 3.06166 119.915 2.85755 119.881 2.65344C119.966 4.03118 119.677 5.11977 119.047 5.88519ZM112.227 6.87172V7.10985L112.533 7.04181L112.72 6.49752L112.788 6.37846L112.55 6.73565L112.227 6.87172ZM111.155 6.39546L110.968 6.70163L110.849 6.76967L110.543 6.88873V7.12686L110.9 7.05882L111.087 6.58257L111.155 6.39546ZM109.539 6.39546L109.301 6.75266L108.995 6.87172L108.944 7.10985L109.25 7.04181L109.369 6.85471L109.488 6.54855L109.539 6.39546ZM107.923 6.39546L107.685 6.75266L107.379 6.87172L107.311 7.10985L107.617 7.04181L107.855 6.56556L107.923 6.39546ZM106.189 6.39546L105.95 6.75266L105.712 6.87172L105.593 7.10985L105.95 7.04181L106.137 6.56556L106.189 6.39546ZM104.215 6.75266L103.977 6.87172L103.739 7.10985L104.164 7.04181L104.352 6.85471L104.42 6.37846L104.215 6.75266ZM102.906 6.39546L102.6 6.75266L102.361 6.87172L102.242 7.10985H102.6L102.787 6.56556L102.906 6.39546ZM101.29 6.39546L101.103 6.70163L100.916 6.82069L100.729 7.12686L101.035 7.05882L101.154 6.87172L101.29 6.39546ZM112.04 9.91637L112.584 9.72927C112.584 10.5627 112.584 11.5493 112.584 12.6549C112.584 13.7775 112.567 14.9341 112.55 16.1588C112.533 17.3664 112.516 18.6081 112.516 19.8668C112.516 21.1254 112.516 22.3161 112.516 23.4217C112.669 24.2211 112.771 25.0206 112.822 25.837C112.856 26.6534 112.907 27.1807 112.941 27.4189L113.179 32.5046V7.46704H102.412C102.974 7.55209 103.739 7.60312 104.709 7.65415C105.678 7.68817 106.699 7.7562 107.736 7.85826C108.774 7.96031 109.743 8.09639 110.662 8.28349C111.58 8.47059 112.244 8.72573 112.635 9.08292L112.754 9.38909H100.252V10.3416H100.797V9.91637L101.222 9.72927V10.4437L101.885 10.6308L101.953 9.91637L102.668 9.72927V10.8689L103.688 11.2261V9.91637L104.59 9.72927L104.522 11.5833L106.137 12.6549V9.91637L107.09 9.72927V13.6754L108.706 15.5804V9.91637L109.42 9.72927V16.1928C109.658 16.669 109.863 17.0943 110.05 17.4515C110.237 17.8086 110.424 18.2679 110.611 18.8292V9.91637L111.155 9.72927C111.155 10.1205 111.155 10.6988 111.155 11.4642C111.155 12.2296 111.155 13.0631 111.155 13.9816C111.155 14.9001 111.138 15.8526 111.121 16.8561C111.104 17.8597 111.087 18.7612 111.087 19.6116C111.325 20.326 111.512 20.8703 111.648 21.2615C111.785 21.6357 111.921 22.0609 112.04 22.5542V9.91637ZM98.4833 3.28278C98.5174 3.28278 98.5854 3.3168 98.6704 3.40184L98.7895 3.52091H98.3133C98.1942 3.52091 98.1091 3.57194 98.0751 3.67399C98.0411 3.77605 97.9731 3.86109 97.888 3.94614C97.6499 4.09922 97.4458 4.15025 97.2927 4.0652C97.2076 4.03118 97.1396 3.98016 97.0886 3.91212C97.0206 3.84408 97.0206 3.82707 97.0546 3.82707C97.2927 3.82707 97.4798 3.75904 97.5989 3.63997C97.837 3.40184 97.9901 3.28278 98.0751 3.28278C98.2622 3.21474 98.3983 3.21474 98.4833 3.28278ZM95.966 3.46988C96.1701 3.02764 96.4252 2.68746 96.7484 2.44933C96.8675 2.33026 97.0546 2.2112 97.3097 2.09213C97.5648 1.97307 97.837 1.90503 98.1091 1.90503C98.3813 1.90503 98.6194 1.93905 98.7895 2.0241C98.9766 2.10914 99.1297 2.17718 99.2998 2.26223C99.4188 2.34727 99.5209 2.43232 99.6059 2.53437C99.691 2.63643 99.759 2.7725 99.8441 2.92558C99.8441 2.9596 99.8271 2.90858 99.8101 2.73848C99.7931 2.5854 99.742 2.46634 99.657 2.38129C99.4529 2.05811 99.1807 1.837 98.8235 1.70092C98.4663 1.56485 98.1432 1.51382 97.871 1.54784C97.4288 1.63288 97.0546 1.76896 96.7314 1.97307C96.5273 2.12615 96.3572 2.34727 96.2211 2.60241C96.085 2.85755 95.983 3.04465 95.949 3.16371V3.46988H95.966ZM99.2828 4.69454C99.1807 4.91566 98.9766 5.11977 98.6534 5.32388C98.5684 5.40893 98.4323 5.47697 98.2282 5.56201C98.0241 5.64706 97.871 5.68108 97.7519 5.68108C97.6329 5.7151 97.4798 5.73211 97.2757 5.7151C97.0716 5.69809 96.9185 5.66407 96.7994 5.63005C96.5273 5.545 96.2551 5.37491 96 5.08576C95.7449 4.81361 95.5918 4.52445 95.5578 4.2523V4.6095C95.5578 4.81361 95.6428 5.03473 95.7959 5.27286C95.949 5.51098 96.1191 5.66407 96.2721 5.74911C96.3572 5.86818 96.5443 5.95322 96.8675 5.98724C96.9865 6.02126 97.1396 6.05528 97.3097 6.07229C97.4968 6.0893 97.6839 6.0893 97.871 6.03827C98.1432 5.95323 98.4153 5.86818 98.6704 5.76612C98.9256 5.66407 99.0957 5.51098 99.1807 5.32388C99.4188 4.96669 99.5379 4.6095 99.5379 4.2523V3.89511C99.4699 4.20128 99.3848 4.47342 99.2828 4.69454ZM96.1701 1.17364C96.8675 0.918498 97.4968 0.782424 98.0581 0.782424C98.7385 0.782424 99.3848 0.850461 99.9972 0.986534C100.609 1.12261 101.256 1.2927 101.936 1.49681C102.855 1.76896 103.722 1.99008 104.573 2.16017C105.406 2.31325 106.41 2.3983 107.566 2.3983C109.08 2.3983 110.322 2.22821 111.274 1.88802C112.227 1.54784 112.992 1.27569 113.554 1.08859C113.707 1.05457 114.115 0.969525 114.744 0.850461C115.373 0.731396 116.071 0.66336 116.836 0.66336C117.466 0.66336 118.061 0.816442 118.605 1.13962C119.15 1.46279 119.456 1.837 119.541 2.27923C119.456 2.07512 119.388 1.87101 119.303 1.64989C119.218 1.42877 119.15 1.27569 119.064 1.20765C118.826 0.88448 118.469 0.629341 118.01 0.42523C117.551 0.22112 116.938 0.119065 116.19 0.119065C115.51 0.119065 114.897 0.187102 114.37 0.323175C113.826 0.459249 113.298 0.629341 112.754 0.799433C112.21 0.986534 111.614 1.15663 110.934 1.34373C110.254 1.53083 109.437 1.64989 108.485 1.73494C108.162 1.76896 107.889 1.80298 107.685 1.80298C107.464 1.80298 107.192 1.78597 106.886 1.73494C105.848 1.70092 104.93 1.59887 104.13 1.42877C103.331 1.27569 102.617 1.1056 101.97 0.952516C101.324 0.799433 100.763 0.64635 100.235 0.510276C99.725 0.374203 99.1977 0.289157 98.6874 0.238129C98.5684 0.204111 98.3983 0.170092 98.1772 0.170092C97.9561 0.170092 97.803 0.187102 97.7349 0.238129C97.5308 0.238129 97.2587 0.289156 96.9355 0.391212C96.5953 0.493267 96.2721 0.629341 95.949 0.816442C95.6258 1.00354 95.3536 1.19064 95.1155 1.41176C94.8774 1.63288 94.7583 1.854 94.7583 2.09213V2.3983C94.9794 1.837 95.4727 1.42877 96.1701 1.17364ZM99.2828 6.63359C98.6194 6.95677 97.939 7.10985 97.2247 7.10985C97.1396 7.10985 96.9695 7.09284 96.7144 7.04181C96.4592 7.0078 96.2211 6.93976 96.034 6.85471C95.6768 6.6506 95.3196 6.41247 94.9624 6.14033C94.6052 5.86818 94.3501 5.57902 94.18 5.30687C94.214 5.57902 94.3331 5.86818 94.5372 6.14033C94.7413 6.41247 94.9794 6.6506 95.2516 6.85471C95.5237 7.05882 95.8469 7.22892 96.1701 7.36499C96.5103 7.50106 96.8164 7.5691 97.0886 7.5691C97.2927 7.60312 97.4628 7.62013 97.5989 7.60312C97.7349 7.58611 97.888 7.5691 98.0411 7.5691C98.2452 7.5691 98.5004 7.51807 98.8235 7.41602C99.1467 7.31396 99.4018 7.21191 99.6059 7.09284C100.609 6.4635 101.12 5.78313 101.154 5.05174C101.239 4.54146 101.256 4.09922 101.239 3.75904C101.222 3.41885 101.188 3.26577 101.154 3.3168C101.154 3.35082 101.137 3.57193 101.103 3.94614C101.069 4.32034 100.95 4.71155 100.746 5.11977C100.422 5.81715 99.9461 6.31042 99.2828 6.63359ZM47.1495 3.40184C46.4862 2.48335 45.7888 1.80298 45.0234 1.36074H52.7286C52.4904 1.4798 52.1673 1.73494 51.776 2.14316C51.3848 2.53437 50.9936 2.97661 50.6024 3.43586C50.2282 3.89511 49.871 4.35436 49.5478 4.81361C49.2247 5.27286 49.0376 5.61304 48.9525 5.86818C48.4082 5.13678 47.7959 4.32034 47.1495 3.40184ZM43.2374 46.4522C41.1283 46.5372 39.2232 46.0099 37.5223 44.9043C35.8214 43.7817 34.5287 42.3189 33.6102 40.4819L15.9206 5.86818C15.7165 5.47697 15.5124 5.05174 15.2913 4.6095C15.0702 4.16726 14.815 3.74203 14.5089 3.3168C14.2027 2.89157 13.8795 2.51736 13.5223 2.17718C13.1651 1.83699 12.7569 1.58186 12.3317 1.42877H17.3494C18.1828 1.42877 19.0673 1.53083 19.9858 1.75195C20.9043 1.97307 21.7888 2.29624 22.6393 2.73848C23.4897 3.18072 24.2721 3.70801 24.9695 4.32034C25.6669 4.93267 26.2112 5.63005 26.6194 6.37846L44.5641 41.2303C45.0744 42.2339 45.6357 43.2034 46.214 44.1559C46.7924 45.1084 47.5918 45.8568 48.6293 46.3671L43.2374 46.4522ZM11.7534 43.1694C11.4132 43.6456 11.039 44.1219 10.6478 44.5982C10.2566 45.0744 9.84833 45.4996 9.45712 45.8909C9.06591 46.2651 8.74274 46.5032 8.50461 46.5712H16.2778C16.0737 46.5372 15.7846 46.3161 15.3763 45.9079C14.9851 45.5167 14.5769 45.0744 14.1517 44.5982C13.7264 44.1219 13.3522 43.6456 13.012 43.1694C12.6719 42.6931 12.4848 42.3359 12.4507 42.0978C12.3147 42.3359 12.0936 42.6931 11.7534 43.1694ZM4.77959 46.8774C6.25939 46.2481 7.55209 45.3806 8.65769 44.275C9.7803 43.1864 10.6648 41.8937 11.3111 40.4139C11.9745 38.9341 12.3317 37.3692 12.4167 35.6853C12.4167 37.3522 12.7229 38.9341 13.3352 40.4139C13.9476 41.8937 14.815 43.1694 15.9376 44.275C17.0602 45.3636 18.3529 46.231 19.8498 46.8774C21.3466 47.5237 22.9284 47.8299 24.5953 47.8299H0C1.71793 47.8299 3.3168 47.5067 4.77959 46.8774Z" fill="white"/>
</svg>
